<svg xmlns="http://www.w3.org/2000/svg" viewBox="0 0 300 100" width="300" height="100">
  <defs>
    <linearGradient id="igBlue" x1="0%" y1="0%" x2="100%" y2="100%">
      <stop offset="0%" stop-color="#00475f"/>
      <stop offset="50%" stop-color="#00576f"/>
      <stop offset="100%" stop-color="#0a6a82"/>
    </linearGradient>
    <linearGradient id="tgBlue" x1="0%" y1="0%" x2="100%" y2="0%">
      <stop offset="0%" stop-color="#003a4f"/>
      <stop offset="100%" stop-color="#00475f"/>
    </linearGradient>
    <linearGradient id="tpBlue" x1="0%" y1="0%" x2="100%" y2="100%">
      <stop offset="0%" stop-color="#0a6a82" stop-opacity="0.35"/>
      <stop offset="100%" stop-color="#00475f" stop-opacity="0.18"/>
    </linearGradient>
  </defs>
  <g transform="translate(6, 2)">
    <path d="M46,4 C60,4 72,13 77,25 C82,37 80,51 72,63 L46,92 L20,63 C12,51 10,37 15,25 C20,13 32,4 46,4 Z" fill="url(#igBlue)" opacity="0.95"/>
    <path d="M46,13 C56,13 65,20 69,28 C73,37 71,48 65,56 L46,80 L27,56 C21,48 19,37 23,28 C27,20 36,13 46,13 Z" fill="#f0f6f8" opacity="0.92"/>
    <ellipse cx="46" cy="36" rx="19" ry="12" fill="none" stroke="url(#tpBlue)" stroke-width="1.3"/>
    <ellipse cx="46" cy="39" rx="14" ry="8.5" fill="none" stroke="url(#tpBlue)" stroke-width="1.2" opacity="0.8"/>
    <ellipse cx="46" cy="41" rx="9" ry="5.5" fill="none" stroke="url(#tpBlue)" stroke-width="1.1" opacity="0.6"/>
    <ellipse cx="46" cy="42.5" rx="4.5" ry="2.8" fill="none" stroke="url(#tpBlue)" stroke-width="1.0" opacity="0.4"/>
    <line x1="46" y1="22" x2="46" y2="56" stroke="#00475f" stroke-width="1" opacity="0.25"/>
    <line x1="28" y1="39" x2="64" y2="39" stroke="#00475f" stroke-width="1" opacity="0.25"/>
    <polygon points="46,22 43,30 49,30" fill="#00475f" opacity="0.55"/>
    <circle cx="46" cy="39" r="2.5" fill="#00475f" opacity="0.45"/>
  </g>
  <text x="105" y="64" font-family="'Outfit',sans-serif" font-size="58" font-weight="700" letter-spacing="5" fill="url(#tgBlue)">SAGE</text>
</svg>
